<?xml version="1.0" standalone="no"?>
<!DOCTYPE svg PUBLIC "-//W3C//DTD SVG 20010904//EN"
 "http://www.w3.org/TR/2001/REC-SVG-20010904/DTD/svg10.dtd">
<svg version="1.0" xmlns="http://www.w3.org/2000/svg"
 width="700.000000pt" height="700.000000pt" viewBox="0 0 700.000000 700.000000"
 preserveAspectRatio="xMidYMid meet">
<metadata>
Created by potrace 1.11, written by Peter Selinger 2001-2013
</metadata>
<g transform="translate(0.000000,700.000000) scale(0.100000,-0.100000)"
fill="#000000" stroke="none">
<path d="M633 6380 c-17 -5 -18 -115 -18 -2880 0 -1581 3 -2877 6 -2880 4 -3
708 -5 1566 -5 l1558 0 0 50 0 50 -1508 1 c-829 0 -1510 4 -1514 7 -3 4 -7
1254 -7 2778 -1 2454 1 2772 14 2778 20 8 5538 6 5547 -2 3 -4 7 -1256 7
-2782 1 -2460 -1 -2775 -14 -2776 -8 0 -298 -1 -645 -1 l-630 -1 -40 -31 c-52
-41 -80 -66 -74 -67 20 -4 1499 -3 1500 1 4 18 3 5753 -1 5759 -6 7 -5719 9
-5747 1z"/>
<path d="M1812 5380 c-5 -4 -9 -3916 -3 -3952 0 -4 25 -7 54 -5 l52 2 3 893 2
892 333 1 c391 1 449 4 582 25 312 49 584 215 740 450 77 116 147 298 174 454
20 108 17 293 -5 435 -70 440 -395 730 -893 796 -87 12 -1024 20 -1039 9z
m1043 -119 c390 -70 657 -281 754 -596 49 -158 59 -368 26 -530 -20 -94 -75
-247 -118 -325 -116 -212 -337 -379 -587 -444 -142 -38 -142 -38 -592 -43
l-418 -5 0 980 0 980 433 -3 c292 -1 455 -6 502 -14z"/>
<path d="M5089 5381 c0 -3 -2 -811 -3 -1796 -3 -1831 -3 -1857 -41 -2019 -90
-386 -334 -682 -651 -790 -67 -22 -163 -42 -234 -49 -35 -3 -35 -4 -38 -57
l-3 -53 75 6 c140 12 298 62 427 138 183 106 315 249 414 447 61 121 96 220
119 337 39 191 39 182 39 2045 l1 1795 -52 1 c-29 0 -52 -2 -53 -5z"/>
</g>
</svg>
